<?xml version="1.0" encoding="UTF-8" standalone="no"?>
<svg width="50px" height="50px" viewBox="0 0 50 50" version="1.1" xmlns="http://www.w3.org/2000/svg" xmlns:xlink="http://www.w3.org/1999/xlink" xmlns:sketch="http://www.bohemiancoding.com/sketch/ns">
    <!-- Generator: Sketch 3.2.2 (9983) - http://www.bohemiancoding.com/sketch -->
    <title>twitter_F</title>
    <desc>Created with Sketch.</desc>
    <defs></defs>
    <g id="Page-1" stroke="none" stroke-width="1" fill="none" fill-rule="evenodd" sketch:type="MSPage">
        <g id="Group" sketch:type="MSLayerGroup" fill="#5A5A5A">
            <path d="M25,50 C38.8071194,50 50,38.8071194 50,25 C50,11.1928806 38.8071194,0 25,0 C11.1928806,0 0,11.1928806 0,25 C0,38.8071194 11.1928806,50 25,50 Z M17.6511224,18.5969065 C22.4577881,21.0235727 26.5199749,20.8835728 26.5199749,20.8835728 C26.5199749,20.8835728 24.9799749,15.5169067 29.7399743,13.1369075 C34.4999734,10.756908 37.7755368,14.7695102 37.7755368,14.7695102 C37.7755368,14.7695102 38.605701,14.5416219 39.2242548,14.3137337 C39.8428086,14.0858455 40.7380838,13.6789022 40.7380838,13.6789022 L39.2713099,16.2970109 L41.5299195,16.0575978 C41.5299195,16.0575978 41.2515397,16.4646222 40.3476067,17.2936522 C39.4436736,18.1226821 39.0711184,18.550969 39.0711184,18.550969 C39.0711184,18.550969 39.3940275,25.0108185 35.991119,29.9843002 C32.5882099,34.9577817 28.1914525,37.942736 21.8044549,38.5709653 C15.4174574,39.1991946 11.2577902,36.6109657 11.2577902,36.6109657 C11.2577902,36.6109657 14.0511399,36.4515477 15.8311227,35.7709658 C17.6111056,35.0903841 20.1711219,33.297633 20.1711219,33.297633 C20.1711219,33.297633 16.5311225,32.1776332 15.2244562,30.9176334 C13.9177897,29.6576336 13.5911231,28.9109671 13.5911231,28.9109671 L17.1844558,28.8643004 C17.1844558,28.8643004 13.4044565,26.8576342 12.3311234,25.2709678 C11.2577901,23.6843015 11.1177902,22.1443017 11.1177902,22.1443017 L13.8803769,23.2598853 C13.8803769,23.2598853 11.584457,20.1376354 11.2577902,17.7109692 C10.9311236,15.284303 11.6777901,13.9776365 11.6777901,13.9776365 C11.6777901,13.9776365 12.8444566,16.1702403 17.6511224,18.5969065 Z" id="twitter_F" sketch:type="MSShapeGroup"></path>
        </g>
    </g>
</svg>