<?xml version="1.0" encoding="UTF-8" standalone="no"?>
<svg width="50px" height="50px" viewBox="0 0 50 50" version="1.1" xmlns="http://www.w3.org/2000/svg" xmlns:xlink="http://www.w3.org/1999/xlink" xmlns:sketch="http://www.bohemiancoding.com/sketch/ns">
    <!-- Generator: Sketch 3.2.2 (9983) - http://www.bohemiancoding.com/sketch -->
    <title>wechat_F</title>
    <desc>Created with Sketch.</desc>
    <defs></defs>
    <g id="Page-1" stroke="none" stroke-width="1" fill="none" fill-rule="evenodd" sketch:type="MSPage">
        <g id="Group" sketch:type="MSLayerGroup" transform="translate(-231.000000, 0.000000)" fill="#5A5A5A">
            <path d="M253.581868,31.71349 C252.906665,31.8201846 252.210865,31.8759226 251.5,31.8759226 C250.081319,31.8759226 248.722638,31.6539257 247.467936,31.2479377 C246.836925,31.0437593 244.531281,33.4583658 243.958462,33.1659495 C243.617191,32.9917354 244.988173,30.1373983 244.670726,29.9346027 C241.837309,28.1245223 240,25.2166612 240,21.9379613 C240,16.4493766 245.148725,12 251.5,12 C257.488706,12 262.408241,15.9558822 262.950398,21.0087917 C267.987972,21.2058777 272,24.6917757 272,28.963141 C272,31.6157194 270.452727,33.9653755 268.073441,35.4125598 C267.625314,35.68513 269.043712,37.9833522 268.541335,38.1878882 C268.231698,38.3139523 266.016625,36.3686672 265.689314,36.466427 C264.692455,36.764165 263.618813,36.9262819 262.5,36.9262819 C258.406549,36.9262819 254.917792,34.7561207 253.581868,31.71349 L253.581868,31.71349 Z M253.056075,29.8333609 C252.549757,29.9033498 252.029946,29.9397533 251.5,29.9397533 C250.173784,29.9397533 248.911041,29.7117672 247.764418,29.2999635 C247.650041,29.2588856 247.242183,29.1358252 247.021544,29.2999639 C246.525556,29.6689406 245.860465,30.434826 245.860465,30.434826 C245.860465,30.434826 246.103952,29.8771525 246.185567,29.0627797 C246.222858,28.6906748 245.654947,28.4297633 245.541607,28.3531011 C243.381737,26.8921787 242,24.4786686 242,21.9698767 C242,17.5682351 246.253295,14 251.5,14 C256.398847,14 260.431644,17.1107699 260.944861,21.1061734 C256.437951,21.7282549 253,25.0091601 253,28.963141 C253,29.2572095 253.019016,29.5475551 253.056075,29.8333609 L253.056075,29.8333609 Z M256,50 C269.807119,50 281,38.8071194 281,25 C281,11.1928806 269.807119,0 256,0 C242.192881,0 231,11.1928806 231,25 C231,38.8071194 242.192881,50 256,50 Z M247.5,20 C248.328427,20 249,19.3284272 249,18.5 C249,17.6715728 248.328427,17 247.5,17 C246.671573,17 246,17.6715728 246,18.5 C246,19.3284272 246.671573,20 247.5,20 Z M255.5,20 C256.328427,20 257,19.3284272 257,18.5 C257,17.6715728 256.328427,17 255.5,17 C254.671573,17 254,17.6715728 254,18.5 C254,19.3284272 254.671573,20 255.5,20 Z M259,27 C259.552285,27 260,26.5522848 260,26 C260,25.4477152 259.552285,25 259,25 C258.447715,25 258,25.4477152 258,26 C258,26.5522848 258.447715,27 259,27 Z M265,27 C265.552285,27 266,26.5522848 266,26 C266,25.4477152 265.552285,25 265,25 C264.447715,25 264,25.4477152 264,26 C264,26.5522848 264.447715,27 265,27 Z" id="wechat_F" sketch:type="MSShapeGroup"></path>
        </g>
    </g>
</svg>