<?xml version="1.0" encoding="UTF-8" standalone="no"?>
<svg width="50px" height="50px" viewBox="0 0 50 50" version="1.1" xmlns="http://www.w3.org/2000/svg" xmlns:xlink="http://www.w3.org/1999/xlink" xmlns:sketch="http://www.bohemiancoding.com/sketch/ns">
    <!-- Generator: Sketch 3.2.2 (9983) - http://www.bohemiancoding.com/sketch -->
    <title>sina_weibo_F</title>
    <desc>Created with Sketch.</desc>
    <defs></defs>
    <g id="Page-1" stroke="none" stroke-width="1" fill="none" fill-rule="evenodd" sketch:type="MSPage">
        <g id="Group" sketch:type="MSLayerGroup" transform="translate(-154.000000, 0.000000)" fill="#5A5A5A">
            <path d="M179,50 C192.807119,50 204,38.8071194 204,25 C204,11.1928806 192.807119,0 179,0 C165.192881,0 154,11.1928806 154,25 C154,38.8071194 165.192881,50 179,50 Z M176.5,38 C185.060414,38 191.933212,33.5228478 191.933212,28 C191.933212,23.334301 186.090445,23.334301 186.090445,23.0331268 C186.090445,22.7319527 189,20.0213909 186.090445,18.3348184 C183.180889,16.6482458 177.858948,19.2124566 178.018991,18.9371657 C180.307911,15 177.036296,13.756979 175.368663,13.756979 C171.39317,13.756979 161,22.4771522 161,28 C161,33.5228478 167.939586,38 176.5,38 Z M176.904625,34.9367424 C182.373725,34.1681106 186.402291,30.6631839 185.902681,27.108269 C185.40307,23.5533541 180.564475,21.2946257 175.095375,22.0632576 C169.626275,22.8318894 165.597709,26.3368161 166.097319,29.891731 C166.59693,33.4466459 171.435525,35.7053743 176.904625,34.9367424 Z M175.89381,33.9683706 C179.146637,33.3360852 181.356433,30.6260695 180.829528,27.9153808 C180.302624,25.204692 177.238547,23.5198134 173.98572,24.1520988 C170.732894,24.7843842 168.523098,27.4943999 169.050002,30.2050887 C169.576907,32.9157775 172.640984,34.6006561 175.89381,33.9683706 Z M176,29 C176.552285,29 177,28.5522848 177,28 C177,27.4477152 176.552285,27 176,27 C175.447715,27 175,27.4477152 175,28 C175,28.5522848 175.447715,29 176,29 Z M173.694162,31.2811048 C174.695242,30.8142935 175.222959,29.8272166 174.87285,29.0764066 C174.522742,28.3255966 173.427387,28.0953702 172.426307,28.5621814 C171.425227,29.0289927 170.897511,30.0160696 171.247619,30.7668796 C171.597728,31.5176896 172.693082,31.747916 173.694162,31.2811048 Z M189.885232,15.9254292 C188.07819,14.2990914 185.990781,14.8689792 185.990781,14.8689792 C185.443588,14.94134 185,15.4488832 185,15.9938303 L185,15.7146504 C185,16.2635277 185.439556,16.6793045 185.994147,16.675116 C185.994147,16.675116 187.716782,16.4073074 188.680537,17.551767 C189.644293,18.6962267 188.956652,20.2688732 188.956652,20.2688732 C188.804158,20.797527 189.127636,21.2260854 189.68525,21.2260854 L189.78404,21.2260854 C190.338928,21.2260853 190.875438,20.7893301 190.95291,20.2414445 C190.95291,20.2414445 191.692274,17.5517671 189.885232,15.9254292 Z M193.258377,12.6727538 C189.945467,9.54054748 185.496957,9.98966964 185.496957,9.98966964 C184.670211,9.99537494 184,10.6744486 184,11.492665 L184,11.1800888 C184,12.0044649 184.679948,12.6392265 185.492743,12.6400384 C185.492743,12.6400384 189.764763,12.1470597 191.752509,15.0000002 C193.740254,17.8529408 192.924435,21.0067557 192.924435,21.0067557 C192.809465,21.8264891 193.385054,22.4910142 194.21183,22.4910142 L193.871027,22.4910142 C194.697005,22.4910142 195.458872,21.8279629 195.534153,21.0090508 C195.534153,21.0090508 196.571287,15.8049598 193.258377,12.6727538 Z" id="sina_weibo_F" sketch:type="MSShapeGroup"></path>
        </g>
    </g>
</svg>